<svg width="174" height="26" xmlns="http://www.w3.org/2000/svg" fill="#000000" version="1.1" class="icon">

  <g>
    <title>Layer 1</title>
    <g stroke-width="0" id="SVGRepo_bgCarrier"/>
    <g stroke-linejoin="round" stroke-linecap="round" id="SVGRepo_tracerCarrier"/>
    <g stroke="null" id="SVGRepo_iconCarrier">
      <path stroke="null" id="svg_1" fill="#FFFFFF" d="m26.20362,4.34487c-0.98968,-0.62571 -1.70325,-1.28803 -2.15507,-1.77062c-0.45181,0.4826 -1.16898,1.14159 -2.16225,1.77062c-1.85387,1.17155 -3.97667,1.81722 -6.32538,1.92706l0,7.75148c0,0.2829 0.03944,0.6124 0.12192,0.97851c0,0 1.02196,5.97087 8.36571,9.05615c0,0 5.33209,-1.8738 7.67362,-7.12244c0.54504,-1.15491 0.80321,-2.18999 0.80321,-2.91222l0,-7.75148c-2.34869,-0.10984 -4.47149,-0.75551 -6.32177,-1.92706l0,0z"/>
      <path stroke="null" id="svg_2" fill="#E6E6E6" d="m27.62002,12.85519l1.59568,-3.17514l-2.26981,0l-1.59569,3.17514l2.26982,0zm-7.04971,-3.17515l-1.59569,3.17515l2.26982,0l1.59569,-3.17515l-2.26982,0zm5.45761,0l-2.26982,0l-1.59569,3.17515l2.26982,0l1.59569,-3.17515zm-9.86458,0l0,3.17515l1.89331,0l1.59569,-3.17515l-3.489,0zm15.76323,3.17515l0,-3.17514l-1.7929,0l-1.59568,3.17514l3.38858,0z"/>
      <path stroke="null" id="svg_3" fill="#005BFF" d="m24.04497,24.05806c-2.883,-1.15823 -4.96995,-3.03203 -6.35407,-4.90916c-0.74944,-0.23297 -1.47019,-0.48259 -2.15866,-0.73887c0.29045,0.50589 0.61676,1.01179 0.97892,1.49771c1.28014,1.72736 3.57506,4.08043 7.23618,5.47496c0.09682,0.03661 0.19722,0.05658 0.29762,0.05658c0.1004,0 0.2008,-0.01664 0.29762,-0.05325c2.66425,-1.01844 4.60417,-2.53945 5.95602,-3.96061c-0.59883,-0.02662 -1.21559,-0.06989 -1.8431,-0.12647c-1.1869,1.07835 -2.64991,2.05353 -4.41054,2.75911zm13.34632,-9.45554c-0.26535,-0.21966 -0.57014,-0.44266 -0.91437,-0.66232c-0.69923,-0.45597 -1.54906,-0.91194 -2.5208,-1.35127l0,-6.89613c0,-0.40605 -0.35141,-0.73554 -0.7817,-0.73554c-2.31283,-0.00998 -4.38543,-0.58577 -6.16398,-1.71072c-1.38054,-0.872 -2.1228,-1.79392 -2.32002,-2.05685c-0.14702,-0.19636 -0.38727,-0.31618 -0.64544,-0.31618c-0.25459,0 -0.49843,0.11649 -0.64545,0.31286c-0.19722,0.26293 -0.94307,1.18485 -2.32361,2.05685c-1.78215,1.12495 -3.85835,1.70073 -6.1676,1.71072c-0.4303,0.00333 -0.7817,0.33282 -0.7817,0.73554l0,3.08195c-0.44464,0.02663 -0.86418,0.06324 -1.25861,0.11316c-0.88569,0.10983 -1.63871,0.27625 -2.25188,0.49591c-1.03988,0.37609 -1.64588,0.90196 -1.80366,1.56428c-0.1506,0.63236 0.12909,1.31133 0.82473,2.02357l0.00358,0.00333c0.01435,0.01331 0.0251,0.02663 0.03945,0.03994c0.64903,0.64568 1.63154,1.30467 2.92243,1.96033c0.08606,0.04327 0.1757,0.08986 0.26535,0.13313c0.4805,0.23631 0.99685,0.46929 1.53831,0.69228c0.15777,0.55249 0.38009,1.12828 0.6562,1.71072c0.63827,0.25628 1.3124,0.50257 2.01881,0.73887c-0.3801,-0.6124 -0.68848,-1.21481 -0.92514,-1.78061c1.98296,0.70226 4.22768,1.32131 6.59073,1.80724c2.6535,0.54583 5.24962,0.87866 7.56964,0.98183c-0.36217,0.48259 -0.76736,0.96186 -1.22276,1.42781c0.61317,0.04659 1.212,0.07987 1.78932,0.09652c0.25818,-0.30287 0.48767,-0.59575 0.69206,-0.872c0.15061,-0.20302 0.29403,-0.40938 0.43388,-0.61905c0.49842,-0.00333 0.97533,-0.01664 1.4379,-0.0466c1.20124,-0.07322 2.2196,-0.22965 3.03357,-0.46595c0.17928,-0.05325 0.34782,-0.1065 0.50559,-0.16642c0.31196,-0.11649 0.58448,-0.24962 0.81396,-0.39273c-0.11833,-0.18638 -0.26893,-0.36611 -0.43387,-0.53585c-0.23666,0.14644 -0.53428,0.27624 -0.88568,0.3894c-0.77812,0.25294 -1.82516,0.42935 -3.08019,0.50589c-0.31196,0.01997 -0.63468,0.03328 -0.96816,0.03994c0.96099,-1.62418 1.52754,-3.29829 1.52754,-4.59631l0,-0.68895c1.00402,0.47261 1.85743,0.95853 2.52081,1.43447c0.15777,0.11316 0.3012,0.223 0.43746,0.33616c0.58449,0.4826 1.24785,1.19151 1.09725,1.83053c-0.0251,0.09985 -0.06813,0.19304 -0.12909,0.28623c0.18288,0.18305 0.33706,0.36611 0.45898,0.54583c0.18646,-0.20968 0.30837,-0.43933 0.36934,-0.68895c0.17929,-0.7655 -0.26535,-1.59756 -1.32315,-2.47288zm-24.44441,-0.21966c-0.0251,-0.01332 -0.05379,-0.02663 -0.07889,-0.03994c-1.21558,-0.62238 -2.13714,-1.25475 -2.70728,-1.84052c-0.00359,0 -0.00359,0.00333 -0.00717,0.00333c-0.2259,-0.213 -0.37292,-0.44598 -0.42671,-0.53585c-0.20081,-0.32284 -0.27969,-0.61905 -0.21515,-0.88531c0.17212,-0.72889 1.39846,-1.27472 3.35631,-1.531c0.39085,-0.04992 0.81039,-0.08986 1.25862,-0.11649l0,4.58632c0,0.29954 0.03227,0.62238 0.08965,0.95854c-0.44464,-0.19637 -0.87135,-0.39606 -1.26937,-0.59908zm19.57851,-0.35945c0,1.05505 -0.5558,2.7924 -1.74986,4.58299c-2.38097,-0.07655 -5.09184,-0.4127 -7.87084,-0.98516c-2.55669,-0.52586 -4.96994,-1.20482 -7.04972,-1.98031c-0.19722,-0.62571 -0.29404,-1.18153 -0.29404,-1.61753l0,-7.75148c2.34871,-0.10984 4.47151,-0.75551 6.32538,-1.92706c0.99327,-0.62571 1.70685,-1.28803 2.16225,-1.77062c0.45181,0.48259 1.16539,1.14159 2.15507,1.77062c1.85028,1.17155 3.97307,1.81722 6.32177,1.92706l0,7.75148z"/>
      <path stroke="null" id="svg_4" fill="#06F3FF" d="m14.11586,10.94145c-1.43791,0.08321 -2.61763,0.28956 -3.49974,0.60907c-0.34424,0.12315 -0.64186,0.26626 -0.88928,0.42269c0.10757,0.17307 0.25459,0.34947 0.43388,0.53585c0.76019,-0.46595 2.13355,-0.78214 3.95514,-0.8953l0,-0.6723z"/>
      <path stroke="null" id="svg_5" fill="#06F3FF" d="m9.72325,11.96988c0.05379,0.08986 0.20439,0.32284 0.42671,0.53585c0.00359,0 0.00359,-0.00333 0.00717,-0.00333c-0.1757,-0.18305 -0.32272,-0.35945 -0.43388,-0.53252c0.00359,0 0.00359,0 0,0zm28.61827,5.79448c-0.1255,-0.17973 -0.27969,-0.36278 -0.45898,-0.54583c-0.14701,-0.14644 -0.30837,-0.29621 -0.49125,-0.44599c-0.81756,-0.67563 -2.01162,-1.37123 -3.4782,-2.03356c-0.01434,0.08986 -0.07889,0.48925 -0.12192,0.68894c1.31957,0.60907 2.38813,1.23811 3.12321,1.84385c0.1506,0.12315 0.30479,0.26293 0.44822,0.40937c0.16494,0.16641 0.31555,0.34946 0.43388,0.53585c0.18288,0.28955 0.28328,0.59575 0.21514,0.88531c-0.20797,0.86868 -1.93273,1.4844 -4.61131,1.64749c-0.7817,0.04659 -1.62794,0.05658 -2.51722,0.02995c-0.57732,-0.01664 -1.17615,-0.04992 -1.78932,-0.09652c-1.94351,-0.14977 -4.04479,-0.44932 -6.1891,-0.89197c-2.06902,-0.42602 -4.04122,-0.95188 -5.81978,-1.54764c-0.70641,-0.23631 -1.38054,-0.48259 -2.01881,-0.73887c-0.76019,-0.3062 -1.47018,-0.62571 -2.11562,-0.95188c-2.35587,-1.19484 -3.63959,-2.42962 -3.4352,-3.29829c0.0251,-0.09985 0.06813,-0.19637 0.12909,-0.28623l-0.00359,-0.00333c-0.03227,-0.02996 -0.23666,-0.22299 -0.45898,-0.54251c-0.18646,0.20968 -0.30838,0.43933 -0.36934,0.68895c-0.15419,0.64568 0.13984,1.34128 0.87135,2.06684c0.64903,0.64568 1.63154,1.30467 2.92243,1.96034c0.87494,0.44266 1.86103,0.872 2.93318,1.27139c0.68489,0.25627 1.40564,0.50257 2.15866,0.73887c1.57776,0.49258 3.28103,0.93191 5.05242,1.29469c1.96503,0.40272 3.89777,0.69227 5.7086,0.85536c0.6311,0.05658 1.24786,0.09985 1.8431,0.12647c0.52712,0.0233 1.0363,0.03662 1.53114,0.03662c0.55938,0 1.10084,-0.01664 1.6136,-0.0466c1.46658,-0.08986 2.65706,-0.30287 3.53917,-0.63237c0.99326,-0.37276 1.57415,-0.88864 1.72834,-1.53432c0.11116,-0.47261 -0.01434,-0.96852 -0.37292,-1.48439z"/>
      <path stroke="null" id="svg_6" fill="#06F3FF" d="m9.64077,12.96836s-0.00358,0 -0.00358,-0.00333c0,0 0.00358,0 0.00358,0.00333z"/>
    </g>
    <text stroke="null" transform="matrix(1.44321 0 0 1.13378 -21.2659 -5.79659)" xml:space="preserve" text-anchor="start" font-family="'Stick No Bills'" font-size="16" stroke-width="0" id="svg_7" y="21.70742" x="50.31104" fill="#005BFF">Starter App</text>
  </g>
</svg>
